<svg width="565" height="652" xmlns="http://www.w3.org/2000/svg" xmlns:xlink="http://www.w3.org/1999/xlink" overflow="hidden"><defs><clipPath id="clip0"><rect x="663" y="37" width="565" height="652"/></clipPath></defs><g clip-path="url(#clip0)" transform="translate(-663 -37)"><path d="M947.565 109.052C951.137 109.052 953.836 109.837 955.66 111.409 957.485 112.981 958.397 115.261 958.397 118.25 958.397 119.273 958.296 120.213 958.094 121.071 957.893 121.929 957.576 122.777 957.144 123.616 956.712 124.455 956.131 125.357 955.401 126.321 954.671 127.285 953.864 128.264 952.981 129.257 952.098 130.25 950.571 131.904 948.4 134.218 944.751 138.094 942.072 141.479 940.363 144.372L951.224 144.372C952.165 144.372 952.923 144.314 953.5 144.198 954.076 144.082 954.537 143.889 954.882 143.62 955.228 143.35 955.502 142.998 955.703 142.564 955.905 142.13 956.159 141.46 956.467 140.553L958.915 140.553 958.426 149 934.716 149 934.716 147.611C935.542 145.587 936.656 143.513 938.058 141.392 939.46 139.271 941.448 136.773 944.022 133.9 946.249 131.432 947.853 129.561 948.833 128.288 949.908 126.9 950.71 125.699 951.238 124.687 951.766 123.674 952.146 122.72 952.376 121.823 952.606 120.926 952.722 120.025 952.722 119.118 952.722 117.672 952.491 116.394 952.03 115.285 951.569 114.176 950.864 113.304 949.913 112.668 948.962 112.031 947.767 111.713 946.326 111.713 942.735 111.713 940.315 113.719 939.066 117.73L935.581 117.73 935.581 112.176C937.904 111.077 940.079 110.281 942.106 109.789 944.132 109.297 945.952 109.052 947.565 109.052ZM930 90.7614 942 90.7614 954 90.7614 966 90.7614 966 94.7778 954 94.7778 942 94.7778 930 94.7778ZM940.89 37 964.542 37 963.706 40.8184 956.85 40.8184 953.594 55.3109C953.172 57.2008 952.96 58.6279 952.96 59.5921 952.96 60.3635 953.085 60.9228 953.335 61.2699 953.585 61.617 953.978 61.7906 954.516 61.7906 955.668 61.7906 957.022 60.8649 958.578 59.0136L960.249 60.5757C958.789 62.1762 957.459 63.3334 956.259 64.0469 955.059 64.7605 953.777 65.1172 952.413 65.1172 951.107 65.1172 950.08 64.6689 949.331 63.7721 948.582 62.8754 948.207 61.6941 948.207 60.2285 948.207 58.9364 948.476 57.0658 949.014 54.6166L949.647 51.6951C949.974 50.1523 950.44 48.2913 951.045 46.1121 951.65 43.9329 952.173 42.2551 952.615 41.0788L952.471 40.8184 944.001 40.8184 940.458 57.2779C940.169 58.5701 939.833 59.9634 939.449 61.4579 939.065 62.9525 938.767 64.018 938.556 64.6544L932.449 64.6544 932.737 63.2369C934.773 61.2121 936.655 56.468 938.383 49.0048L940.285 40.8184 939.363 40.8184C937.999 40.8184 936.847 41.0499 935.906 41.5127 934.965 41.9756 933.937 42.9011 932.823 44.2897L931.008 42.7565C932.007 41.5415 932.823 40.616 933.457 39.9796 934.091 39.3431 934.758 38.8032 935.459 38.3596 936.16 37.9161 936.948 37.5785 937.822 37.3471 938.695 37.1157 939.718 37 940.89 37Z" fill="#404040" fill-rule="evenodd"/><path d="M1214.5 342.434C1213.19 342.434 1212.09 342.825 1211.2 343.608 1210.32 344.39 1209.61 345.517 1209.06 346.986 1208.52 348.456 1208.14 350.246 1207.91 352.355 1207.68 354.464 1207.57 356.846 1207.57 359.499 1207.57 365.722 1208.14 370.289 1209.29 373.2 1210.44 376.111 1212.23 377.566 1214.64 377.566 1216.94 377.566 1218.65 376.197 1219.77 373.457 1220.88 370.718 1221.43 366.476 1221.43 360.73 1221.43 356.34 1221.15 352.785 1220.58 350.064 1220.01 347.344 1219.21 345.392 1218.2 344.209 1217.18 343.026 1215.95 342.434 1214.5 342.434ZM1214.64 340C1218.81 340 1221.91 341.613 1223.95 344.839 1225.98 348.065 1227 352.942 1227 359.47 1227 366.228 1225.91 371.339 1223.73 374.803 1221.55 378.268 1218.37 380 1214.19 380 1210.08 380 1207.02 378.377 1205.01 375.132 1203 371.887 1202 366.962 1202 360.358 1202 356.846 1202.31 353.811 1202.93 351.253 1203.55 348.695 1204.41 346.581 1205.52 344.911 1206.64 343.24 1207.97 342.004 1209.53 341.203 1211.09 340.401 1212.8 340 1214.64 340Z" fill="#404040" fill-rule="evenodd"/><path d="M673.724 346 697 346 696.178 349.802 689.43 349.802 686.227 364.234C685.811 366.117 685.603 367.538 685.603 368.498 685.603 369.266 685.726 369.823 685.972 370.169 686.217 370.514 686.605 370.687 687.134 370.687 688.268 370.687 689.601 369.765 691.131 367.922L692.776 369.477C691.339 371.071 690.031 372.224 688.849 372.934 687.668 373.645 686.406 374 685.064 374 683.779 374 682.768 373.553 682.031 372.66 681.294 371.767 680.925 370.591 680.925 369.132 680.925 367.845 681.19 365.982 681.719 363.543L682.343 360.634C682.664 359.097 683.122 357.244 683.718 355.074 684.313 352.904 684.828 351.233 685.263 350.062L685.121 349.802 676.786 349.802 673.299 366.193C673.016 367.48 672.685 368.868 672.307 370.356 671.929 371.844 671.636 372.905 671.428 373.539L665.418 373.539 665.701 372.127C667.704 370.111 669.557 365.387 671.258 357.955L673.129 349.802 672.222 349.802C670.88 349.802 669.746 350.033 668.82 350.494 667.893 350.955 666.882 351.877 665.786 353.259L664 351.733C664.983 350.523 665.786 349.601 666.41 348.967 667.034 348.333 667.69 347.796 668.38 347.354 669.07 346.912 669.845 346.576 670.705 346.346 671.565 346.115 672.571 346 673.724 346Z" fill="#404040" fill-rule="evenodd"/><path d="M1135.5 189.361 1126.42 203.796 1126.42 204.122 1135.5 204.122 1135.5 198.334C1135.5 196.877 1135.52 195.246 1135.57 193.441 1135.61 191.635 1135.67 190.275 1135.73 189.361ZM1136.17 184.108 1139.49 184.108 1139.49 204.122 1139.97 204.122C1140.87 204.122 1141.51 204.056 1141.9 203.924 1142.29 203.792 1142.61 203.56 1142.86 203.227 1143.12 202.894 1143.35 202.347 1143.57 201.588L1145.34 201.588 1145.06 206.377 1139.49 206.377 1139.49 210.189C1139.49 211.227 1139.52 211.986 1139.59 212.467 1139.66 212.947 1139.78 213.327 1139.94 213.606 1140.1 213.885 1140.34 214.117 1140.66 214.303 1140.98 214.489 1141.49 214.675 1142.2 214.861L1142.2 216 1132.78 216 1132.78 214.861C1133.74 214.613 1134.38 214.338 1134.71 214.036 1135.03 213.734 1135.24 213.304 1135.34 212.746 1135.45 212.188 1135.5 211.335 1135.5 210.189L1135.5 206.377 1122.59 206.377 1122.59 204.633ZM1120 169.201 1129.67 169.201 1139.33 169.201 1149 169.201 1149 172.429 1139.33 172.429 1129.67 172.429 1120 172.429ZM1128.77 126 1147.83 126 1147.15 129.068 1141.63 129.068 1139.01 140.714C1138.67 142.233 1138.5 143.38 1138.5 144.154 1138.5 144.774 1138.6 145.224 1138.8 145.503 1139 145.781 1139.32 145.921 1139.75 145.921 1140.68 145.921 1141.77 145.177 1143.02 143.689L1144.37 144.945C1143.19 146.231 1142.12 147.161 1141.15 147.734 1140.19 148.308 1139.15 148.594 1138.06 148.594 1137 148.594 1136.18 148.234 1135.57 147.513 1134.97 146.793 1134.67 145.844 1134.67 144.666 1134.67 143.628 1134.88 142.124 1135.32 140.156L1135.83 137.809C1136.09 136.569 1136.47 135.073 1136.95 133.322 1137.44 131.571 1137.86 130.223 1138.22 129.278L1138.1 129.068 1131.28 129.068 1128.42 142.295C1128.19 143.333 1127.92 144.453 1127.61 145.654 1127.3 146.855 1127.06 147.711 1126.89 148.222L1121.97 148.222 1122.2 147.083C1123.84 145.456 1125.36 141.644 1126.75 135.647L1128.28 129.068 1127.54 129.068C1126.44 129.068 1125.52 129.254 1124.76 129.626 1124 129.998 1123.17 130.742 1122.27 131.858L1120.81 130.626C1121.62 129.65 1122.27 128.906 1122.78 128.394 1123.3 127.883 1123.83 127.449 1124.4 127.093 1124.96 126.736 1125.6 126.465 1126.3 126.279 1127 126.093 1127.83 126 1128.77 126Z" fill="#404040" fill-rule="evenodd"/><path d="M947.565 649.146C951.137 649.146 953.836 649.93 955.66 651.498 957.485 653.066 958.397 655.341 958.397 658.323 958.397 659.343 958.296 660.281 958.094 661.137 957.893 661.993 957.576 662.84 957.144 663.676 956.712 664.513 956.131 665.413 955.401 666.375 954.671 667.337 953.864 668.313 952.981 669.304 952.098 670.295 950.571 671.945 948.4 674.253 944.751 678.12 942.072 681.497 940.363 684.383L951.224 684.383C952.165 684.383 952.923 684.325 953.5 684.209 954.076 684.094 954.537 683.902 954.882 683.632 955.228 683.363 955.502 683.012 955.703 682.579 955.905 682.146 956.16 681.478 956.467 680.573L958.916 680.573 958.426 689 934.716 689 934.716 687.615C935.542 685.595 936.656 683.526 938.058 681.41 939.46 679.294 941.448 676.802 944.022 673.936 946.249 671.473 947.853 669.607 948.833 668.337 949.908 666.952 950.71 665.754 951.238 664.744 951.766 663.734 952.146 662.782 952.376 661.887 952.607 660.993 952.722 660.093 952.722 659.189 952.722 657.746 952.491 656.471 952.03 655.365 951.569 654.259 950.864 653.388 949.913 652.753 948.962 652.119 947.767 651.801 946.326 651.801 942.735 651.801 940.315 653.802 939.066 657.804L935.581 657.804 935.581 652.263C937.904 651.166 940.08 650.373 942.106 649.882 944.132 649.391 945.952 649.146 947.565 649.146ZM913 630.899 930.25 630.899 947.5 630.899 964.75 630.899 982 630.899 982 634.906 964.75 634.906 947.5 634.906 930.25 634.906 913 634.906ZM956.89 577.265 980.542 577.265 979.706 581.074 972.85 581.074 969.594 595.532C969.172 597.418 968.96 598.842 968.96 599.804 968.96 600.573 969.085 601.131 969.335 601.477 969.585 601.824 969.978 601.997 970.516 601.997 971.668 601.997 973.022 601.073 974.578 599.226L976.249 600.785C974.789 602.382 973.459 603.536 972.259 604.248 971.059 604.96 969.777 605.316 968.413 605.316 967.107 605.316 966.08 604.868 965.331 603.974 964.582 603.079 964.207 601.901 964.207 600.439 964.207 599.149 964.476 597.283 965.014 594.84L965.647 591.925C965.974 590.386 966.44 588.529 967.045 586.355 967.65 584.181 968.173 582.508 968.615 581.334L968.471 581.074 960.001 581.074 956.458 597.495C956.169 598.784 955.833 600.174 955.449 601.665 955.065 603.156 954.767 604.219 954.556 604.854L948.449 604.854 948.737 603.44C950.773 601.42 952.655 596.687 954.383 589.241L956.285 581.074 955.363 581.074C953.999 581.074 952.847 581.305 951.906 581.767 950.965 582.229 949.937 583.152 948.823 584.537L947.008 583.008C948.007 581.796 948.823 580.872 949.457 580.237 950.091 579.602 950.758 579.064 951.459 578.621 952.16 578.179 952.948 577.842 953.822 577.611 954.695 577.38 955.718 577.265 956.89 577.265ZM929.45 565C931.62 565 933.521 565.337 935.154 566.01 936.786 566.683 938.035 567.65 938.899 568.91 939.763 570.171 940.195 571.676 940.195 573.427 940.195 575.062 939.869 576.5 939.216 577.741 938.563 578.982 937.646 580.064 936.465 580.988 935.283 581.911 933.752 582.815 931.87 583.701L931.87 583.96C933.041 584.172 934.17 584.532 935.255 585.042 936.34 585.552 937.305 586.211 938.15 587.019 938.995 587.827 939.672 588.794 940.181 589.919 940.69 591.045 940.944 592.329 940.944 593.772 940.944 596.004 940.459 597.985 939.49 599.717 938.52 601.449 937.036 602.815 935.039 603.815 933.041 604.815 930.612 605.316 927.75 605.316 926.098 605.316 924.317 605.128 922.406 604.753 920.495 604.378 918.743 603.882 917.148 603.267L917.148 597.149 920.605 597.149C921.278 599.149 922.166 600.602 923.27 601.506 924.375 602.41 925.878 602.863 927.779 602.863 930.276 602.863 932.163 602.18 933.44 600.814 934.717 599.448 935.355 597.428 935.355 594.753 935.355 591.944 934.51 589.799 932.82 588.318 931.13 586.836 928.653 586.096 925.388 586.096L922.795 586.096 922.795 583.556C925.388 583.402 927.572 582.902 929.349 582.056 931.125 581.209 932.446 580.122 933.31 578.794 934.174 577.467 934.607 575.976 934.607 574.321 934.607 572.186 934.04 570.541 932.907 569.387 931.774 568.232 930.122 567.655 927.952 567.655 926.146 567.655 924.677 568.146 923.544 569.127 922.411 570.108 921.575 571.609 921.038 573.629L917.581 573.629 917.581 568.146C919.809 567.088 921.892 566.299 923.832 565.779 925.772 565.26 927.644 565 929.45 565Z" fill="#404040" fill-rule="evenodd"/><path d="M1136.41 572.962 1127.27 587.613 1127.27 587.944 1136.41 587.944 1136.41 582.069C1136.41 580.59 1136.43 578.935 1136.48 577.102 1136.53 575.27 1136.58 573.89 1136.64 572.962ZM1137.09 567.629 1140.43 567.629 1140.43 587.944 1140.92 587.944C1141.83 587.944 1142.47 587.877 1142.86 587.743 1143.25 587.609 1143.58 587.373 1143.83 587.035 1144.09 586.697 1144.33 586.143 1144.55 585.372L1146.32 585.372 1146.04 590.232 1140.43 590.232 1140.43 594.102C1140.43 595.155 1140.47 595.926 1140.54 596.414 1140.61 596.901 1140.72 597.287 1140.89 597.57 1141.05 597.853 1141.29 598.089 1141.61 598.278 1141.93 598.466 1142.45 598.655 1143.17 598.844L1143.17 600 1133.67 600 1133.67 598.844C1134.64 598.592 1135.29 598.313 1135.61 598.006 1135.94 597.7 1136.16 597.263 1136.26 596.697 1136.36 596.131 1136.41 595.265 1136.41 594.102L1136.41 590.232 1123.41 590.232 1123.41 588.463ZM1107 552.499 1121 552.499 1135 552.499 1149 552.499 1163 552.499 1163 555.775 1149 555.775 1135 555.775 1121 555.775 1107 555.775ZM1142.62 508.65 1161.82 508.65 1161.14 511.764 1155.57 511.764 1152.93 523.585C1152.59 525.126 1152.42 526.29 1152.42 527.077 1152.42 527.706 1152.52 528.162 1152.72 528.445 1152.92 528.728 1153.24 528.87 1153.68 528.87 1154.61 528.87 1155.71 528.115 1156.98 526.605L1158.33 527.879C1157.15 529.184 1156.07 530.128 1155.09 530.71 1154.12 531.292 1153.08 531.583 1151.97 531.583 1150.91 531.583 1150.08 531.217 1149.47 530.486 1148.86 529.754 1148.56 528.791 1148.56 527.596 1148.56 526.542 1148.78 525.016 1149.21 523.018L1149.73 520.635C1149.99 519.377 1150.37 517.859 1150.86 516.082 1151.35 514.304 1151.78 512.936 1152.14 511.977L1152.02 511.764 1145.15 511.764 1142.27 525.189C1142.04 526.243 1141.76 527.379 1141.45 528.598 1141.14 529.817 1140.9 530.686 1140.73 531.206L1135.77 531.206 1136 530.049C1137.66 528.398 1139.18 524.528 1140.59 518.441L1142.13 511.764 1141.38 511.764C1140.27 511.764 1139.34 511.953 1138.58 512.33 1137.81 512.708 1136.98 513.463 1136.07 514.595L1134.6 513.345C1135.41 512.354 1136.07 511.599 1136.59 511.08 1137.1 510.561 1137.64 510.121 1138.21 509.759 1138.78 509.397 1139.42 509.122 1140.13 508.933 1140.84 508.744 1141.67 508.65 1142.62 508.65ZM1110.93 499 1130.99 499 1130.99 500.132 1117.38 531.371 1113.99 531.371 1113.99 530.215 1126.59 503.294 1126.59 502.94 1116.31 502.94C1115.67 502.94 1115.16 502.999 1114.77 503.117 1114.39 503.235 1114.07 503.404 1113.82 503.624 1113.56 503.845 1113.34 504.136 1113.17 504.497 1113 504.859 1112.77 505.575 1112.47 506.644L1110.46 506.644Z" fill="#404040" fill-rule="evenodd"/><path d="M761.409 573.108 752.267 587.681 752.267 588.009 761.409 588.009 761.409 582.166C761.409 580.696 761.432 579.049 761.479 577.227 761.526 575.404 761.58 574.031 761.643 573.108ZM762.087 567.805 765.43 567.805 765.43 588.009 765.921 588.009C766.825 588.009 767.472 587.943 767.862 587.81 768.252 587.677 768.575 587.442 768.832 587.106 769.089 586.769 769.327 586.218 769.545 585.451L771.322 585.451 771.042 590.285 765.43 590.285 765.43 594.134C765.43 595.182 765.465 595.948 765.536 596.433 765.606 596.918 765.723 597.301 765.886 597.583 766.05 597.865 766.292 598.099 766.611 598.287 766.931 598.475 767.449 598.662 768.166 598.85L768.166 600 758.673 600 758.673 598.85C759.64 598.6 760.286 598.322 760.614 598.017 760.941 597.712 761.156 597.278 761.257 596.715 761.358 596.152 761.409 595.291 761.409 594.134L761.409 590.285 748.409 590.285 748.409 588.525ZM732 552.757 746 552.757 760 552.757 774 552.757 788 552.757 788 556.015 774 556.015 760 556.015 746 556.015 732 556.015ZM767.621 509.146 786.816 509.146 786.138 512.244 780.574 512.244 777.932 524C777.589 525.533 777.417 526.691 777.417 527.473 777.417 528.099 777.518 528.552 777.721 528.834 777.924 529.115 778.243 529.256 778.68 529.256 779.615 529.256 780.714 528.505 781.977 527.003L783.333 528.271C782.148 529.569 781.069 530.508 780.094 531.086 779.12 531.665 778.08 531.955 776.973 531.955 775.913 531.955 775.079 531.591 774.471 530.864 773.863 530.136 773.559 529.178 773.559 527.989 773.559 526.941 773.778 525.423 774.214 523.437L774.728 521.067C774.993 519.815 775.371 518.306 775.862 516.538 776.353 514.77 776.778 513.409 777.137 512.455L777.02 512.244 770.146 512.244 767.27 525.596C767.036 526.644 766.763 527.774 766.452 528.986 766.14 530.199 765.898 531.063 765.727 531.579L760.77 531.579 761.004 530.429C762.656 528.787 764.184 524.938 765.586 518.884L767.13 512.244 766.381 512.244C765.275 512.244 764.339 512.431 763.576 512.807 762.812 513.182 761.978 513.933 761.074 515.06L759.601 513.816C760.411 512.83 761.074 512.079 761.588 511.563 762.103 511.047 762.644 510.609 763.213 510.249 763.782 509.889 764.421 509.615 765.13 509.428 765.84 509.24 766.67 509.146 767.621 509.146ZM751.991 498 753.814 498 753.464 503.444 740.02 503.444 740.02 513.745C740.83 513.401 741.711 513.143 742.662 512.971 743.612 512.799 744.563 512.713 745.514 512.713 747.369 512.713 749.013 513.092 750.448 513.851 751.882 514.61 752.988 515.689 753.768 517.089 754.547 518.489 754.937 520.112 754.937 521.958 754.937 524.055 754.5 525.854 753.627 527.355 752.755 528.857 751.492 529.999 749.84 530.781 748.187 531.564 746.231 531.955 743.971 531.955 741.274 531.955 738.453 531.399 735.507 530.289L735.507 525.314 738.336 525.314C738.804 526.91 739.509 528.083 740.452 528.834 741.395 529.585 742.615 529.96 744.111 529.96 746.184 529.96 747.751 529.334 748.811 528.083 749.871 526.831 750.401 524.962 750.401 522.475 750.401 520.816 750.12 519.444 749.559 518.356 748.998 517.269 748.242 516.483 747.291 515.998 746.34 515.513 745.234 515.271 743.971 515.271 742.911 515.271 741.999 515.337 741.235 515.47 740.472 515.603 739.653 515.81 738.781 516.092L736.91 514.989 736.91 499.549 749.793 499.549C750.323 499.549 750.705 499.506 750.939 499.42 751.172 499.334 751.359 499.201 751.5 499.021 751.64 498.841 751.804 498.501 751.991 498Z" fill="#404040" fill-rule="evenodd"/><path d="M761.409 194.329 752.267 208.782 752.267 209.107 761.409 209.107 761.409 203.312C761.409 201.854 761.432 200.221 761.479 198.413 761.526 196.606 761.58 195.244 761.643 194.329ZM762.087 189.069 765.43 189.069 765.43 209.107 765.921 209.107C766.825 209.107 767.472 209.041 767.862 208.91 768.252 208.778 768.575 208.545 768.832 208.211 769.089 207.878 769.327 207.331 769.545 206.571L771.322 206.571 771.042 211.365 765.43 211.365 765.43 215.182C765.43 216.221 765.465 216.982 765.536 217.462 765.606 217.943 765.723 218.324 765.886 218.603 766.05 218.882 766.292 219.115 766.611 219.301 766.931 219.487 767.449 219.673 768.166 219.86L768.166 221 758.673 221 758.673 219.86C759.64 219.611 760.286 219.336 760.614 219.033 760.941 218.731 761.156 218.3 761.257 217.742 761.358 217.183 761.409 216.33 761.409 215.182L761.409 211.365 748.409 211.365 748.409 209.619ZM732 174.144 746 174.144 760 174.144 774 174.144 788 174.144 788 177.376 774 177.376 760 177.376 746 177.376 732 177.376ZM767.621 130.891 786.816 130.891 786.138 133.963 780.574 133.963 777.932 145.623C777.589 147.144 777.417 148.292 777.417 149.067 777.417 149.688 777.519 150.138 777.721 150.417 777.924 150.697 778.243 150.836 778.68 150.836 779.615 150.836 780.714 150.091 781.977 148.602L783.333 149.859C782.148 151.146 781.069 152.077 780.094 152.652 779.12 153.226 778.08 153.513 776.973 153.513 775.913 153.513 775.079 153.152 774.471 152.43 773.863 151.709 773.559 150.759 773.559 149.579 773.559 148.54 773.778 147.035 774.214 145.064L774.728 142.714C774.993 141.473 775.371 139.975 775.862 138.222 776.353 136.469 776.778 135.119 777.137 134.173L777.02 133.963 770.146 133.963 767.27 147.206C767.036 148.245 766.763 149.366 766.452 150.569 766.14 151.771 765.898 152.628 765.727 153.14L760.77 153.14 761.004 152C762.656 150.371 764.184 146.554 765.586 140.549L767.13 133.963 766.381 133.963C765.275 133.963 764.339 134.149 763.576 134.522 762.812 134.894 761.978 135.639 761.074 136.756L759.601 135.522C760.411 134.545 761.074 133.8 761.588 133.288 762.103 132.776 762.644 132.342 763.213 131.985 763.782 131.628 764.421 131.357 765.13 131.17 765.84 130.984 766.67 130.891 767.621 130.891ZM745.351 121C747.112 121 748.655 121.272 749.98 121.815 751.305 122.358 752.318 123.137 753.019 124.154 753.721 125.17 754.072 126.384 754.072 127.796 754.072 129.115 753.807 130.274 753.277 131.275 752.747 132.276 752.002 133.149 751.044 133.893 750.085 134.638 748.842 135.367 747.314 136.081L747.314 136.29C748.265 136.461 749.181 136.752 750.062 137.163 750.942 137.574 751.726 138.106 752.411 138.757 753.097 139.409 753.647 140.189 754.06 141.096 754.473 142.004 754.68 143.04 754.68 144.203 754.68 146.003 754.286 147.601 753.499 148.998 752.712 150.394 751.508 151.496 749.886 152.302 748.265 153.109 746.294 153.513 743.971 153.513 742.631 153.513 741.185 153.361 739.634 153.059 738.083 152.756 736.661 152.357 735.367 151.86L735.367 146.926 738.173 146.926C738.718 148.54 739.439 149.711 740.335 150.441 741.232 151.17 742.451 151.534 743.994 151.534 746.021 151.534 747.552 150.984 748.589 149.882 749.625 148.78 750.144 147.151 750.144 144.995 750.144 142.729 749.458 140.999 748.086 139.805 746.714 138.61 744.704 138.013 742.054 138.013L739.95 138.013 739.95 135.965C742.054 135.841 743.827 135.437 745.269 134.754 746.711 134.072 747.782 133.195 748.484 132.125 749.185 131.054 749.536 129.852 749.536 128.517 749.536 126.795 749.076 125.468 748.156 124.538 747.237 123.607 745.896 123.141 744.135 123.141 742.669 123.141 741.477 123.537 740.557 124.328 739.638 125.119 738.96 126.33 738.523 127.959L735.718 127.959 735.718 123.537C737.526 122.683 739.217 122.047 740.791 121.628 742.366 121.209 743.885 121 745.351 121Z" fill="#404040" fill-rule="evenodd"/></g></svg>