<svg width="526" height="525" xmlns="http://www.w3.org/2000/svg" xmlns:xlink="http://www.w3.org/1999/xlink" overflow="hidden"><defs><clipPath id="clip0"><rect x="377" y="98" width="526" height="525"/></clipPath></defs><g clip-path="url(#clip0)" transform="translate(-377 -98)"><path d="M636.216 603.094 643.784 603.094 643.784 622 643.784 622 643.784 622 636.216 622 636.216 603.094 636.216 603.094ZM515.362 569.692 521.917 573.473 512.456 589.846 505.901 586.065ZM764.638 569.692 774.099 586.065 767.544 589.846 758.083 573.473ZM428.362 479.996 432.146 486.545 415.76 495.998 411.976 489.449ZM851.638 479.996 868.024 489.448 864.24 495.998 847.854 486.545ZM377 356.219 395.921 356.219 395.921 356.219 395.921 363.781 395.921 363.781 377 363.781 377 363.781 377 356.219ZM884.079 356.219 903 356.219 903 356.219 903 363.781 903 363.781 884.079 363.781 884.079 363.781 884.079 356.219ZM415.76 224.002 432.146 233.455 428.362 240.004 411.976 230.552ZM864.24 224.002 868.024 230.551 851.638 240.004 847.854 233.455ZM512.456 130.154 521.917 146.527 515.362 150.308 505.901 133.935ZM767.544 130.154 774.099 133.935 764.638 150.308 758.083 146.527ZM636.216 98 643.784 98 643.784 116.906 643.784 116.906 643.784 116.906 636.216 116.906 636.216 98.0001 636.216 98.0001Z" fill="#BFBFBF" fill-rule="evenodd"/><path d="M639.738 574.876C641.191 574.876 642.289 575.193 643.031 575.827 643.773 576.462 644.145 577.382 644.145 578.589 644.145 579.001 644.104 579.381 644.022 579.727 643.94 580.073 643.811 580.416 643.635 580.754 643.459 581.093 643.223 581.457 642.926 581.846 642.629 582.235 642.301 582.63 641.941 583.031 641.582 583.432 640.961 584.1 640.078 585.034 638.594 586.598 637.504 587.964 636.809 589.132L641.227 589.132C641.609 589.132 641.918 589.109 642.152 589.062 642.387 589.015 642.574 588.937 642.715 588.828 642.856 588.719 642.967 588.577 643.049 588.402 643.131 588.227 643.234 587.956 643.359 587.591L644.355 587.591 644.156 591 634.512 591 634.512 590.44C634.848 589.622 635.301 588.785 635.871 587.929 636.441 587.073 637.25 586.065 638.297 584.905 639.203 583.909 639.856 583.154 640.254 582.64 640.691 582.08 641.018 581.595 641.232 581.186 641.447 580.778 641.602 580.392 641.695 580.031 641.789 579.669 641.836 579.305 641.836 578.939 641.836 578.355 641.742 577.839 641.555 577.392 641.367 576.944 641.08 576.592 640.693 576.335 640.307 576.078 639.82 575.95 639.234 575.95 637.773 575.95 636.789 576.759 636.281 578.378L634.863 578.378 634.863 576.137C635.809 575.693 636.693 575.372 637.518 575.173 638.342 574.975 639.082 574.876 639.738 574.876ZM626 568.084 633 568.084 640 568.084 647 568.084 654 568.084 654 569.08 647 569.08 640 569.08 633 569.08 626 569.08ZM643.43 545.962 653.051 545.962 652.711 547.503 649.922 547.503 648.598 553.353C648.426 554.116 648.34 554.692 648.34 555.081 648.34 555.392 648.391 555.618 648.492 555.758 648.594 555.898 648.754 555.968 648.973 555.968 649.441 555.968 649.992 555.595 650.625 554.848L651.305 555.478C650.711 556.124 650.17 556.591 649.682 556.879 649.193 557.167 648.672 557.311 648.117 557.311 647.586 557.311 647.168 557.13 646.863 556.768 646.559 556.406 646.406 555.93 646.406 555.338 646.406 554.816 646.516 554.061 646.734 553.073L646.992 551.894C647.125 551.271 647.314 550.52 647.561 549.64 647.807 548.76 648.02 548.083 648.199 547.609L648.141 547.503 644.695 547.503 643.254 554.147C643.137 554.669 643 555.231 642.844 555.834 642.688 556.437 642.566 556.868 642.481 557.124L639.996 557.124 640.113 556.552C640.941 555.735 641.707 553.82 642.41 550.808L643.184 547.503 642.809 547.503C642.254 547.503 641.785 547.597 641.402 547.784 641.02 547.97 640.602 548.344 640.148 548.905L639.41 548.286C639.816 547.795 640.148 547.422 640.406 547.165 640.664 546.908 640.936 546.69 641.221 546.511 641.506 546.332 641.826 546.196 642.182 546.102 642.537 546.009 642.953 545.962 643.43 545.962ZM632.691 541C633.574 541 634.348 541.136 635.012 541.409 635.676 541.681 636.184 542.072 636.535 542.582 636.887 543.092 637.063 543.701 637.063 544.409 637.063 545.071 636.93 545.653 636.664 546.155 636.398 546.657 636.025 547.095 635.545 547.468 635.064 547.842 634.441 548.208 633.676 548.566L633.676 548.671C634.152 548.757 634.611 548.903 635.053 549.109 635.494 549.315 635.887 549.582 636.23 549.909 636.574 550.236 636.85 550.627 637.057 551.082 637.264 551.537 637.367 552.057 637.367 552.641 637.367 553.544 637.17 554.345 636.775 555.046 636.381 555.747 635.777 556.299 634.965 556.704 634.152 557.109 633.164 557.311 632 557.311 631.328 557.311 630.604 557.235 629.826 557.084 629.049 556.932 628.336 556.731 627.688 556.482L627.688 554.007 629.094 554.007C629.367 554.816 629.729 555.404 630.178 555.77 630.627 556.136 631.238 556.319 632.012 556.319 633.027 556.319 633.795 556.042 634.314 555.49 634.834 554.937 635.094 554.12 635.094 553.038 635.094 551.901 634.75 551.033 634.063 550.434 633.375 549.835 632.367 549.535 631.039 549.535L629.984 549.535 629.984 548.508C631.039 548.445 631.928 548.243 632.65 547.9 633.373 547.558 633.91 547.118 634.262 546.581 634.613 546.044 634.789 545.441 634.789 544.771 634.789 543.907 634.559 543.242 634.098 542.775 633.637 542.308 632.965 542.074 632.082 542.074 631.348 542.074 630.75 542.273 630.289 542.67 629.828 543.067 629.488 543.674 629.27 544.491L627.863 544.491 627.863 542.273C628.77 541.844 629.617 541.525 630.406 541.315 631.195 541.105 631.957 541 632.691 541Z" fill="#A6A6A6" fill-rule="evenodd"/><path d="M639.738 157.889C641.191 157.889 642.289 158.206 643.031 158.84 643.773 159.474 644.145 160.393 644.145 161.599 644.145 162.011 644.104 162.39 644.022 162.736 643.94 163.082 643.811 163.425 643.635 163.763 643.459 164.101 643.223 164.465 642.926 164.854 642.629 165.243 642.301 165.637 641.941 166.038 641.582 166.438 640.961 167.105 640.078 168.039 638.594 169.602 637.504 170.967 636.809 172.133L641.227 172.133C641.609 172.133 641.918 172.11 642.152 172.063 642.387 172.017 642.574 171.939 642.715 171.83 642.856 171.721 642.967 171.579 643.049 171.404 643.131 171.229 643.234 170.959 643.359 170.594L644.355 170.594 644.156 174 634.512 174 634.512 173.44C634.848 172.623 635.301 171.787 635.871 170.932 636.441 170.076 637.25 169.069 638.297 167.91 639.203 166.915 639.856 166.16 640.254 165.647 640.691 165.087 641.018 164.603 641.232 164.195 641.447 163.786 641.602 163.401 641.695 163.04 641.789 162.678 641.836 162.314 641.836 161.949 641.836 161.366 641.742 160.85 641.555 160.403 641.367 159.956 641.08 159.604 640.693 159.347 640.307 159.091 639.82 158.962 639.234 158.962 637.773 158.962 636.789 159.771 636.281 161.389L634.863 161.389 634.863 159.149C635.809 158.706 636.693 158.385 637.518 158.187 638.342 157.988 639.082 157.889 639.738 157.889ZM632 151.103 637 151.103 642 151.103 647 151.103 647 152.099 642 152.099 637 152.099 632 152.099ZM636.43 129 646.051 129 645.711 130.54 642.922 130.54 641.598 136.385C641.426 137.147 641.34 137.722 641.34 138.111 641.34 138.422 641.391 138.648 641.492 138.788 641.594 138.928 641.754 138.998 641.973 138.998 642.441 138.998 642.992 138.625 643.625 137.878L644.305 138.508C643.711 139.153 643.17 139.62 642.682 139.908 642.193 140.196 641.672 140.339 641.117 140.339 640.586 140.339 640.168 140.159 639.863 139.797 639.559 139.435 639.406 138.959 639.406 138.368 639.406 137.847 639.516 137.092 639.734 136.105L639.992 134.926C640.125 134.304 640.314 133.554 640.561 132.675 640.807 131.796 641.02 131.119 641.199 130.645L641.141 130.54 637.695 130.54 636.254 137.178C636.137 137.699 636 138.261 635.844 138.864 635.688 139.466 635.566 139.896 635.481 140.153L632.996 140.153 633.113 139.581C633.941 138.765 634.707 136.851 635.41 133.841L636.184 130.54 635.809 130.54C635.254 130.54 634.785 130.633 634.402 130.82 634.02 131.007 633.602 131.38 633.148 131.94L632.41 131.322C632.816 130.832 633.148 130.458 633.406 130.202 633.664 129.945 633.936 129.727 634.221 129.548 634.506 129.369 634.826 129.233 635.182 129.14 635.537 129.047 635.953 129 636.43 129Z" fill="#A6A6A6" fill-rule="evenodd"/><path d="M413.015 357.172 422.624 357.172 422.284 358.778 419.499 358.778 418.176 364.875C418.005 365.67 417.919 366.27 417.919 366.676 417.919 367 417.969 367.236 418.071 367.382 418.172 367.528 418.332 367.601 418.551 367.601 419.019 367.601 419.569 367.211 420.201 366.432L420.88 367.09C420.287 367.763 419.747 368.25 419.259 368.55 418.771 368.85 418.25 369 417.696 369 417.166 369 416.748 368.811 416.444 368.434 416.14 368.057 415.987 367.56 415.987 366.943 415.987 366.4 416.097 365.613 416.315 364.583L416.573 363.354C416.705 362.705 416.895 361.922 417.14 361.005 417.386 360.088 417.599 359.383 417.778 358.888L417.72 358.778 414.279 358.778 412.839 365.702C412.722 366.246 412.585 366.832 412.429 367.461 412.273 368.089 412.152 368.538 412.067 368.805L409.585 368.805 409.702 368.209C410.529 367.357 411.294 365.361 411.996 362.222L412.769 358.778 412.394 358.778C411.84 358.778 411.372 358.875 410.99 359.07 410.607 359.265 410.19 359.654 409.737 360.238L409 359.593C409.406 359.082 409.737 358.693 409.995 358.425 410.252 358.158 410.523 357.93 410.808 357.744 411.093 357.557 411.413 357.415 411.768 357.318 412.123 357.221 412.539 357.172 413.015 357.172ZM862.874 353.034C862.335 353.034 861.885 353.201 861.522 353.533 861.159 353.866 860.866 354.345 860.644 354.969 860.422 355.594 860.263 356.354 860.17 357.251 860.076 358.147 860.029 359.159 860.029 360.287 860.029 362.932 860.266 364.873 860.738 366.11 861.21 367.347 861.941 367.966 862.932 367.966 863.876 367.966 864.577 367.384 865.033 366.219 865.49 365.055 865.718 363.252 865.718 360.81 865.718 358.944 865.601 357.433 865.367 356.277 865.132 355.121 864.807 354.292 864.389 353.789 863.972 353.286 863.467 353.034 862.874 353.034ZM862.932 352C864.641 352 865.913 352.686 866.748 354.057 867.583 355.428 868 357.5 868 360.275 868 363.147 867.553 365.319 866.66 366.791 865.766 368.264 864.461 369 862.745 369 861.059 369 859.805 368.31 858.982 366.931 858.159 365.552 857.747 363.459 857.747 360.652 857.747 359.159 857.874 357.87 858.127 356.782 858.381 355.695 858.736 354.797 859.193 354.087 859.649 353.377 860.197 352.852 860.837 352.511 861.477 352.17 862.175 352 862.932 352Z" fill="#A6A6A6" fill-rule="evenodd"/></g></svg>